<svg width="214" height="24" viewBox="0 0 214 24" fill="none" xmlns="http://www.w3.org/2000/svg">
    <path
        d="M206.555 0C204.825 0 203.239 0.623557 202.011 1.65866C201.704 1.91432 201.421 2.20116 201.158 2.5067C200.13 3.72887 199.51 5.30024 199.51 7.00879C199.51 8.46167 199.955 9.81479 200.719 10.931C200.976 11.3051 201.265 11.6543 201.584 11.9723C202.857 13.2381 204.618 14.0176 206.555 14.0176C210.441 14.0176 213.6 10.8748 213.6 7.00879C213.6 3.14273 210.441 0 206.555 0ZM200.638 7.00879C200.638 5.45613 201.246 4.04689 202.236 2.99308L205.264 4.35867C205.37 4.40855 205.433 4.50832 205.433 4.62056V5.24412C205.433 5.36883 205.345 5.48731 205.226 5.52472L204.48 5.74296C204.085 5.8552 203.822 6.21063 203.822 6.61594C203.822 7.02126 204.085 7.37668 204.474 7.49516L207.783 8.49285C207.909 8.53027 207.99 8.64251 207.99 8.76722V9.91456C207.99 10.0642 207.877 10.1889 207.727 10.2014L202.029 10.7875C201.158 9.77115 200.638 8.4492 200.638 7.00879ZM206.555 12.8952C205.283 12.8952 204.104 12.4899 203.133 11.8102L207.84 11.3238C208.567 11.249 209.112 10.6441 209.112 9.9208V8.77345C209.112 8.1499 208.705 7.60117 208.103 7.42033L205.458 6.62218L205.54 6.59724C206.135 6.42264 206.555 5.86768 206.555 5.24412V4.62056C206.555 4.06559 206.229 3.56675 205.721 3.33603L203.17 2.18245C204.129 1.51524 205.295 1.1224 206.555 1.1224C209.821 1.1224 212.472 3.76005 212.472 7.00879C212.472 10.2575 209.821 12.8952 206.555 12.8952Z"
        fill="white" />
    <path
        d="M0 19.1693H7.16801C9.59589 19.1693 11.5613 17.214 11.5613 14.6837C11.5613 12.0383 9.59589 11.1182 9.59589 11.1182V11.0031C9.59589 11.0031 11.3301 9.96801 11.3301 7.55267C11.3301 5.02232 9.36466 3.06705 6.93679 3.06705H0V19.1693ZM1.84981 17.444V11.9233H7.16801C8.55537 11.9233 9.7115 13.0734 9.7115 14.6837C9.7115 16.2939 8.55537 17.444 7.16801 17.444H1.84981ZM1.84981 10.3131V4.79229H6.93679C8.32414 4.79229 9.48027 5.94245 9.48027 7.55267C9.48027 9.16289 8.32414 10.3131 6.93679 10.3131H1.84981Z"
        fill="white" />
    <path
        d="M14.3279 19.1693H16.0621V11.8083C16.0621 10.198 16.987 9.27791 18.6056 9.27791H20.3398V7.66769H18.3744C17.1026 7.66769 16.6402 8.12775 16.1777 8.81785H16.0621L15.8309 7.66769H14.3279V19.1693Z"
        fill="white" />
    <path
        d="M25.0871 19.3993C27.6306 19.3993 28.6711 17.7891 28.6711 17.7891H28.7868L29.018 19.1693H30.521V11.8083C30.521 9.04788 28.7868 7.43765 26.012 7.43765C23.1217 7.43765 21.5031 9.16289 21.3875 11.0031H23.1217C23.2373 9.96801 24.2778 9.04788 26.012 9.04788C27.7462 9.04788 28.7868 10.083 28.7868 11.8083V12.1533H25.6652C22.428 12.1533 21.0407 13.6485 21.0407 15.8338C21.0407 17.9041 22.6593 19.3993 25.0871 19.3993ZM25.0871 17.7891C23.5842 17.7891 22.7749 16.984 22.7749 15.8338C22.7749 14.6837 23.5842 13.7635 25.6652 13.7635H28.7868V14.2236C28.7868 16.4089 27.3994 17.7891 25.0871 17.7891Z"
        fill="white" />
    <path
        d="M38.5046 24C41.7417 24 43.7072 22.0447 43.7072 19.1693V7.66769H42.2042L41.973 9.16289H41.8574C41.0481 8.12775 39.6607 7.43765 38.1577 7.43765C35.1518 7.43765 32.8395 9.73797 32.8395 13.0734C32.8395 16.4089 35.1518 18.7092 38.1577 18.7092C39.6607 18.7092 40.9325 18.1341 41.8574 17.099H41.973V19.1693C41.973 21.1246 40.5856 22.3897 38.5046 22.3897C36.3079 22.3897 35.1518 21.2396 35.0362 20.0894H33.302C33.4176 22.0447 35.2674 24 38.5046 24ZM38.2734 17.099C36.1923 17.099 34.5737 15.4888 34.5737 13.0734C34.5737 10.6581 36.1923 9.04788 38.2734 9.04788C40.3544 9.04788 41.973 10.6581 41.973 13.0734C41.973 15.4888 40.3544 17.099 38.2734 17.099Z"
        fill="white" />
    <path
        d="M50.2989 19.3993C52.8424 19.3993 53.8829 17.7891 53.8829 17.7891H53.9985L54.2298 19.1693H55.7327V11.8083C55.7327 9.04788 53.9985 7.43765 51.2238 7.43765C48.3335 7.43765 46.7149 9.16289 46.5993 11.0031H48.3335C48.4491 9.96801 49.4896 9.04788 51.2238 9.04788C52.958 9.04788 53.9985 10.083 53.9985 11.8083V12.1533H50.877C47.6398 12.1533 46.2525 13.6485 46.2525 15.8338C46.2525 17.9041 47.871 19.3993 50.2989 19.3993ZM50.2989 17.7891C48.796 17.7891 47.9867 16.984 47.9867 15.8338C47.9867 14.6837 48.796 13.7635 50.877 13.7635H53.9985V14.2236C53.9985 16.4089 52.6112 17.7891 50.2989 17.7891Z"
        fill="white" />
    <path d="M63.3695 19.1693H64.7569V4.44724H70.3063V3.06705H57.8201V4.44724H63.3695V19.1693Z" fill="white" />
    <path
        d="M75.8566 19.3993C78.8626 19.3993 80.2499 17.467 80.828 15.9488H79.325C78.8626 16.869 77.7065 18.0191 75.8566 18.0191C73.7756 18.0191 72.0414 16.5239 71.8102 14.1086H81.1055C81.1055 14.1086 81.1748 13.7635 81.1748 13.1885C81.1748 9.73797 78.8626 7.43765 75.8566 7.43765C72.7351 7.43765 70.4228 9.73797 70.4228 13.4185C70.4228 17.099 72.7351 19.3993 75.8566 19.3993ZM71.8102 12.7284C72.0414 10.3131 73.66 8.81785 75.8566 8.81785C78.0533 8.81785 79.6719 10.4281 79.7875 12.7284H71.8102Z"
        fill="white" />
    <path
        d="M88.4512 19.3993C90.9947 19.3993 92.9602 17.9041 93.5382 15.3738H92.0353C91.804 16.2939 90.7635 18.0191 88.4512 18.0191C86.139 18.0191 84.4048 16.2939 84.4048 13.4185C84.4048 10.5431 86.139 8.81785 88.4512 8.81785C90.7635 8.81785 91.804 10.4281 92.0353 11.3482H93.5382C92.9602 8.93286 90.9947 7.43765 88.4512 7.43765C85.3297 7.43765 83.0174 9.73797 83.0174 13.4185C83.0174 17.099 85.3297 19.3993 88.4512 19.3993Z"
        fill="white" />
    <path
        d="M96.1982 19.1693H97.5856V12.2683C97.5856 10.3131 99.0886 8.81785 101.17 8.81785C103.135 8.81785 104.522 10.198 104.522 12.2683V19.1693H105.91V12.2683C105.91 9.39293 103.944 7.43765 101.285 7.43765C98.7417 7.43765 97.7012 9.16289 97.7012 9.16289H97.5856V3.06705H96.1982V19.1693Z"
        fill="white" />
    <path
        d="M109.377 19.1693H110.765V12.2683C110.765 10.3131 112.268 8.81785 114.349 8.81785C116.314 8.81785 117.701 10.198 117.701 12.2683V19.1693H119.089V12.2683C119.089 9.39293 117.123 7.43765 114.464 7.43765C111.921 7.43765 110.88 9.16289 110.88 9.16289H110.765L110.533 7.66769H109.377V19.1693Z"
        fill="white" />
    <path
        d="M127.183 19.3993C130.189 19.3993 132.617 16.984 132.617 13.4185C132.617 9.85299 130.189 7.43765 127.183 7.43765C124.177 7.43765 121.75 9.85299 121.75 13.4185C121.75 16.984 124.177 19.3993 127.183 19.3993ZM127.183 18.0191C124.987 18.0191 123.137 16.1789 123.137 13.4185C123.137 10.6581 124.987 8.81785 127.183 8.81785C129.38 8.81785 131.23 10.6581 131.23 13.4185C131.23 16.1789 129.38 18.0191 127.183 18.0191Z"
        fill="white" />
    <path d="M135.382 19.1693H136.769V3.06705H135.382V19.1693Z" fill="white" />
    <path
        d="M144.989 19.3993C147.995 19.3993 150.423 16.984 150.423 13.4185C150.423 9.85299 147.995 7.43765 144.989 7.43765C141.983 7.43765 139.555 9.85299 139.555 13.4185C139.555 16.984 141.983 19.3993 144.989 19.3993ZM144.989 18.0191C142.792 18.0191 140.942 16.1789 140.942 13.4185C140.942 10.6581 142.792 8.81785 144.989 8.81785C147.185 8.81785 149.035 10.6581 149.035 13.4185C149.035 16.1789 147.185 18.0191 144.989 18.0191Z"
        fill="white" />
    <path
        d="M157.812 24C160.933 24 162.899 22.0447 162.899 19.1693V7.66769H161.743L161.511 9.50794H161.396C160.933 8.81785 159.662 7.43765 157.465 7.43765C154.575 7.43765 152.262 9.73797 152.262 13.0734C152.262 16.4089 154.575 18.7092 157.465 18.7092C159.662 18.7092 160.933 17.329 161.396 16.6389H161.511V19.1693C161.511 21.2396 160.124 22.6198 157.812 22.6198C155.5 22.6198 154.343 21.4696 154.228 20.0894H152.841C153.002 22.1597 154.806 24 157.812 24ZM157.581 17.329C155.384 17.329 153.65 15.6038 153.65 13.0734C153.65 10.5431 155.384 8.81785 157.581 8.81785C159.777 8.81785 161.511 10.5431 161.511 13.0734C161.511 15.6038 159.777 17.329 157.581 17.329Z"
        fill="white" />
    <path d="M166.482 19.1693H167.869V7.66769H166.482V19.1693ZM166.366 5.02232H167.985V3.41209H166.366V5.02232Z"
        fill="white" />
    <path
        d="M176.089 19.3993C179.095 19.3993 180.482 17.467 181.06 15.9488H179.557C179.095 16.869 177.938 18.0191 176.089 18.0191C174.008 18.0191 172.273 16.5239 172.042 14.1086H181.338C181.338 14.1086 181.407 13.7635 181.407 13.1885C181.407 9.73797 179.095 7.43765 176.089 7.43765C172.967 7.43765 170.655 9.73797 170.655 13.4185C170.655 17.099 172.967 19.3993 176.089 19.3993ZM172.042 12.7284C172.273 10.3131 173.892 8.81785 176.089 8.81785C178.285 8.81785 179.904 10.4281 180.02 12.7284H172.042Z"
        fill="white" />
    <path
        d="M187.643 19.3993C190.533 19.3993 192.036 17.9041 192.036 16.0639C192.036 14.3386 191.111 13.3955 188.915 12.9584L186.602 12.4984C185.331 12.2453 184.752 11.5782 184.752 10.6581C184.752 9.73797 185.677 8.81785 187.527 8.81785C189.493 8.81785 190.533 9.85299 190.533 11.0031H191.92C191.92 9.04788 190.302 7.43765 187.527 7.43765C184.868 7.43765 183.365 8.93286 183.365 10.6581C183.365 12.4984 184.406 13.4185 186.371 13.8095L188.683 14.2696C190.071 14.5456 190.649 15.1437 190.649 16.0639C190.649 17.099 189.724 18.0191 187.643 18.0191C185.654 18.0191 184.452 17.007 184.452 15.8338H183.134C183.134 17.6741 184.891 19.3993 187.643 19.3993Z"
        fill="white" />
</svg>
